<svg width="60" height="60" fill="none" xmlns="http://www.w3.org/2000/svg"><path d="M56.766 38.595l-4.761-2.16-1.363-2.202a18.306 18.306 0 008.532-15.482V9.71a1.406 1.406 0 00-.757-1.211l-12.233-6.51a1.34 1.34 0 00-1.308.014L33.028 8.5c-.44.247-.702.702-.688 1.21v9.22a18.377 18.377 0 001.596 7.611h-9.922a6.923 6.923 0 00-5.463 2.697l-5.409 7.087-9.082 2.477A5.508 5.508 0 000 44.1v3.468c.014 3.04 2.49 5.504 5.532 5.532h.66a6.917 6.917 0 008.533 4.816A6.91 6.91 0 0019.54 53.1h20.23a6.918 6.918 0 008.532 4.816 6.91 6.91 0 004.816-4.816h1.349A5.56 5.56 0 0060 47.568V43.59a5.53 5.53 0 00-3.234-4.995zM35.092 10.522l10.5-5.766 10.83 5.78v8.215a15.628 15.628 0 01-9.578 14.38h-.028l-1.32.565-1.074-.482a15.605 15.605 0 01-9.33-14.298v-8.394zM12.867 55.37a4.167 4.167 0 01-4.17-4.17 4.167 4.167 0 014.17-4.17 4.167 4.167 0 014.17 4.17c0 2.299-1.872 4.156-4.17 4.17zm33.578 0a4.167 4.167 0 01-4.17-4.17 4.176 4.176 0 014.17-4.17 4.167 4.167 0 014.17 4.17c.013 2.299-1.858 4.156-4.17 4.17zm10.816-7.816h-.013a2.808 2.808 0 01-2.78 2.78h-1.156a6.917 6.917 0 00-7.761-5.973 6.921 6.921 0 00-5.973 5.973H19.734a6.917 6.917 0 00-7.762-5.973A6.921 6.921 0 006 50.334h-.468a2.808 2.808 0 01-2.78-2.78v-3.468a2.767 2.767 0 012.037-2.642l9.523-2.601c.289-.083.55-.248.743-.496l5.697-7.458a4.133 4.133 0 013.276-1.61h11.477a18.635 18.635 0 007.816 6.467l1.651.716a1.39 1.39 0 001.101 0l1.858-.798c.097-.041.193-.083.275-.124l1.693 2.711c.138.234.344.413.592.523l5.147 2.326a2.773 2.773 0 011.623 2.49v3.964z" fill="#373737"/><path d="M52.376 15.723a1.392 1.392 0 00-1.94-.22l-.014.014-6.44 5.243-2.34-2.738a1.376 1.376 0 00-1.94-.165 1.376 1.376 0 00-.166 1.94l.014.014 3.206 3.756a.19.19 0 00.042.055c.014.014.027.042.055.056l.055.055c.014.013.041.027.055.04.014.015.041.028.069.042.027.014.04.028.055.041.027.014.041.028.069.042a.105.105 0 00.055.027.191.191 0 00.082.028c.014.014.041.014.055.027.028.014.055.014.083.028.014 0 .041.014.055.014.027 0 .055.013.082.013.014 0 .042.014.055.014h.303c.028 0 .069-.014.096-.014.014 0 .028 0 .042-.013.027 0 .055-.014.082-.014.014 0 .028-.014.042-.014.027 0 .04-.014.068-.027.014 0 .028-.014.056-.014.013-.014.04-.014.055-.028.013-.014.04-.014.055-.027.013-.014.04-.014.055-.028a.105.105 0 01.055-.027c.013 0 .027-.028.055-.028a.19.19 0 01.055-.041c.014-.014.027-.014.041-.028l7.473-6.082a1.392 1.392 0 00.22-1.94z" fill="#373737"/></svg>