<svg width="60" height="60" fill="none" xmlns="http://www.w3.org/2000/svg"><path d="M48.556 18.402c-.556-3.438-1.564-6.392-2.991-8.776a14.847 14.847 0 00-6.004-5.679C37.078 2.655 33.928 2 30.197 2c-3.65 0-6.804.678-9.373 2.013-2.57 1.322-4.7 3.272-6.332 5.8-1.576 2.464-2.733 5.473-3.442 8.942-.697 3.417-1.05 7.269-1.05 11.45 0 4.215.282 8.05.838 11.398.568 3.425 1.584 6.377 3.018 8.77a14.869 14.869 0 005.973 5.678C22.3 57.344 25.446 58 29.182 58c3.676 0 6.845-.678 9.414-2.014 2.57-1.321 4.7-3.272 6.332-5.8 1.581-2.473 2.735-5.478 3.428-8.931.679-3.379 1.023-7.235 1.023-11.46 0-4.185-.277-8.018-.823-11.393zm-2.344 22.422c-.64 3.187-1.692 5.94-3.124 8.18-1.42 2.198-3.267 3.893-5.496 5.04-2.259 1.173-5.088 1.768-8.41 1.768-3.379 0-6.184-.571-8.338-1.699a12.718 12.718 0 01-5.11-4.859c-1.293-2.161-2.215-4.856-2.738-8.01-.537-3.23-.808-6.944-.808-11.038 0-4.035.338-7.74 1.006-11.013.654-3.205 1.71-5.964 3.139-8.197 1.418-2.198 3.266-3.893 5.496-5.04 2.258-1.173 5.074-1.769 8.368-1.769 3.375 0 6.186.573 8.354 1.7a12.695 12.695 0 015.134 4.859c1.287 2.15 2.2 4.843 2.712 8.005.527 3.26.794 6.976.794 11.043 0 4.082-.33 7.793-.98 11.03z" fill="#373737"/><path d="M37.92 18.695c0-.004 0-.008-.002-.012-.298-1.438-.676-2.694-1.121-3.733-.477-1.114-1.074-2.01-1.772-2.664a6.256 6.256 0 00-2.449-1.488 9.594 9.594 0 00-2.832-.405c-1.803 0-3.343.453-4.585 1.351-1.206.889-2.133 2.17-2.836 3.92-.645 1.626-1.093 3.638-1.332 5.976a59.82 59.82 0 00-.248 3.077 1.094 1.094 0 002.184.122c.058-1.047.139-2.044.239-2.97.22-2.144.62-3.96 1.189-5.394.545-1.358 1.233-2.33 2.094-2.964.853-.618 1.962-.93 3.295-.93a7.44 7.44 0 012.178.304 4.034 4.034 0 011.602.992c.478.447.903 1.098 1.262 1.935.387.903.72 2.017.99 3.31.264 1.353.466 2.964.598 4.786.134 1.844.203 4.01.203 6.435 0 2.117-.045 3.918-.136 5.505-.092 1.624-.266 3.102-.518 4.402-.234 1.26-.545 2.375-.926 3.313l-.006.017c-.337.87-.772 1.608-1.295 2.192-.53.563-1.096.962-1.731 1.22a.308.308 0 00-.015.007c-.659.28-1.452.42-2.357.42-1.22 0-2.221-.234-3.056-.714-.792-.462-1.462-1.304-1.99-2.498-.587-1.34-1.03-3.184-1.314-5.477a58.687 58.687 0 01-.328-4.162 1.093 1.093 0 10-2.185.102c.074 1.594.189 3.047.341 4.324.316 2.544.801 4.536 1.484 6.095.72 1.627 1.692 2.806 2.896 3.509 1.164.67 2.561 1.01 4.152 1.01 1.197 0 2.275-.2 3.203-.592.922-.376 1.764-.967 2.505-1.757l.016-.017c.702-.782 1.277-1.746 1.711-2.865.434-1.073.786-2.327 1.044-3.719.27-1.388.455-2.964.553-4.685.094-1.629.14-3.47.14-5.63 0-2.479-.07-4.697-.21-6.593-.14-1.94-.347-3.593-.634-5.055z" fill="#373737"/><path d="M21.707 30.792a1.094 1.094 0 000-2.188 1.093 1.093 0 100 2.188z" fill="#373737"/></svg>