<svg width="60" height="60" fill="none" xmlns="http://www.w3.org/2000/svg"><path d="M17.135 39.115L11.1 33.08a6.215 6.215 0 00-4.42-1.83H2.5a1.25 1.25 0 000 2.5h4.18c.985 0 1.952.4 2.65 1.097l3.902 3.903H2.5a1.25 1.25 0 000 2.5h13.75a1.253 1.253 0 00.885-2.135zM16.25 45c-.69 0-1.25.56-1.25 1.25V50c0 .69-.563 1.25-1.25 1.25h-7.5C5.562 51.25 5 50.69 5 50v-5a1.25 1.25 0 00-2.5 0v5a3.755 3.755 0 003.75 3.75h7.5A3.755 3.755 0 0017.5 50v-3.75c0-.69-.56-1.25-1.25-1.25z" fill="#373737"/><path d="M54.328 23.893C50.883 22.09 43.15 21.25 30 21.25c-13.15 0-20.882.84-24.328 2.643C1.748 25.943 0 29.368 0 35c0 5.415 1.24 10.125 1.292 10.323.145.547.64.927 1.208.927h10.955l4.735 2.368c.175.087.367.132.56.132h22.5c.193 0 .385-.045.557-.132l4.738-2.368H57.5c.568 0 1.063-.38 1.208-.927C58.76 45.125 60 40.415 60 35c0-5.632-1.748-9.058-5.672-11.107zm2.184 19.857h-10.26c-.195 0-.387.045-.56.133l-4.737 2.367h-21.91l-4.735-2.367a1.253 1.253 0 00-.56-.133H3.49c-.348-1.592-.99-5.032-.99-8.75 0-4.708 1.255-7.285 4.327-8.893C9.822 24.542 17.617 23.75 30 23.75s20.178.793 23.172 2.357C56.245 27.715 57.5 30.292 57.5 35c0 3.718-.642 7.158-.987 8.75z" fill="#373737"/><path d="M57.5 38.75H46.766l3.9-3.903a3.782 3.782 0 012.652-1.097h4.18a1.25 1.25 0 000-2.5h-4.18c-1.67 0-3.237.65-4.42 1.83l-6.035 6.035a1.25 1.25 0 00.885 2.135H57.5a1.25 1.25 0 000-2.5zm-12.617-6.78a1.252 1.252 0 00-1.133-.72h-27.5a1.252 1.252 0 00-.96 2.05l6.25 7.5c.238.285.59.45.96.45h15c.37 0 .723-.165.96-.45l6.25-7.5c.313-.373.378-.892.173-1.33zm-7.97 6.78H23.086l-4.168-5H41.08l-4.167 5zm17.984-14.247c-1.422-3.27-6.182-14.048-7.837-15.456-2.063-1.752-7.97-2.797-15.81-2.797h-2.5c-7.84 0-13.748 1.045-15.81 2.795C11.285 10.453 6.522 21.23 5.102 24.5c-.272.635.018 1.37.65 1.645a1.25 1.25 0 001.645-.647C10.22 19 13.672 11.78 14.56 10.953c.962-.818 5.035-2.203 14.19-2.203h2.5c9.155 0 13.227 1.385 14.185 2.198.892.832 4.345 8.05 7.167 14.55a1.252 1.252 0 002.295-.995zM56.25 43.75c-.69 0-1.25.56-1.25 1.25v5c0 .69-.562 1.25-1.25 1.25h-7.5c-.687 0-1.25-.56-1.25-1.25v-3.75a1.25 1.25 0 00-2.5 0V50a3.755 3.755 0 003.75 3.75h7.5A3.755 3.755 0 0057.5 50v-5c0-.69-.56-1.25-1.25-1.25z" fill="#373737"/></svg>