<svg width="60" height="60" fill="none" xmlns="http://www.w3.org/2000/svg"><path d="M49.265 58h-27.53C18.574 58 16 55.422 16 52.25v-34.5c0-3.172 2.574-5.75 5.735-5.75h27.53C52.426 12 55 14.578 55 17.75v34.5c0 3.172-2.574 5.75-5.735 5.75zm-27.53-43.7a3.45 3.45 0 00-3.44 3.45v34.5a3.45 3.45 0 003.44 3.45h27.53a3.45 3.45 0 003.44-3.45v-34.5a3.45 3.45 0 00-3.44-3.45h-27.53z" fill="#373737"/><path d="M13.03 51h-2.295C7.574 51 5 48.438 5 45.286V8.714C5 5.562 7.574 3 10.735 3h27.53C41.426 3 44 5.562 44 8.714c0 .631-.514 1.143-1.147 1.143a1.145 1.145 0 01-1.147-1.143 3.44 3.44 0 00-3.441-3.428h-27.53a3.44 3.44 0 00-3.44 3.428v36.572a3.44 3.44 0 003.44 3.428h2.294c.634 0 1.148.512 1.148 1.143S13.663 51 13.029 51zm30.859-8H26.11c-.612 0-1.11-.672-1.11-1.5s.498-1.5 1.111-1.5H43.89c.613 0 1.111.672 1.111 1.5S44.503 43 43.89 43zm0 8H26.11c-.612 0-1.11-.448-1.11-1s.498-1 1.111-1H43.89c.613 0 1.111.448 1.111 1s-.498 1-1.111 1z" fill="#373737"/><path d="M43.889 33H26.11c-.612 0-1.11-.672-1.11-1.5s.498-1.5 1.111-1.5H43.89c.613 0 1.111.672 1.111 1.5S44.503 33 43.89 33zm0-10H26.11c-.612 0-1.11-.448-1.11-1s.498-1 1.111-1H43.89c.613 0 1.111.448 1.111 1s-.498 1-1.111 1z" fill="#373737"/></svg>