<svg width="48" height="48" fill="none" xmlns="http://www.w3.org/2000/svg"><g clip-path="url(#clip0)" fill="#373737"><path d="M41.143 15.429h-8.571a1.714 1.714 0 100 3.429h8.571c.947 0 1.715.767 1.715 1.714v22.286c0 .947-.768 1.714-1.715 1.714H6.858a1.714 1.714 0 01-1.715-1.714V20.572c0-.947.768-1.715 1.715-1.715h8.571a1.714 1.714 0 100-3.428H6.857a5.143 5.143 0 00-5.142 5.143v22.286A5.143 5.143 0 006.858 48h34.285a5.143 5.143 0 005.143-5.142V20.572a5.143 5.143 0 00-5.143-5.143z"/><path d="M33.783 9.073L25.212.502a1.714 1.714 0 00-2.424 0l-8.572 8.571a1.714 1.714 0 002.424 2.424l5.645-5.645v28.434a1.714 1.714 0 103.43 0V5.852l5.644 5.646a1.714 1.714 0 002.424-2.425z"/></g><defs><clipPath id="clip0"><path fill="#fff" d="M0 0h48v48H0z"/></clipPath></defs></svg>