<svg width="64" height="64" fill="none" xmlns="http://www.w3.org/2000/svg"><path d="M48.1 36.93a3.688 3.688 0 11-.001-7.376 3.688 3.688 0 01.001 7.376zm0-5.774a2.087 2.087 0 10-.002 4.175 2.087 2.087 0 00.002-4.175zM15.925 36.93a3.687 3.687 0 110-7.375 3.687 3.687 0 010 7.375zm0-5.774a2.087 2.087 0 100 4.175 2.087 2.087 0 000-4.175zm26.74 7.477h-21.07a.8.8 0 01-.68-1.222l2.346-3.785a.801.801 0 01.68-.378H40.32a.801.801 0 01.68.378l2.347 3.785a.8.8 0 01-.68 1.222h-.001zm-19.633-1.6h18.195l-1.354-2.185H24.386l-1.354 2.185zm21.72 4.505H19.093a.8.8 0 110-1.6h25.66a.8.8 0 010 1.6z" fill="#373737"/><path d="M52.862 45.026H11.165a3.124 3.124 0 01-3.12-3.12v-7.172a8.267 8.267 0 018.257-8.254h31.422a8.268 8.268 0 018.259 8.254v7.172a3.124 3.124 0 01-3.121 3.12zM16.302 28.08a6.664 6.664 0 00-6.658 6.658v7.17a1.52 1.52 0 001.52 1.52h41.698a1.52 1.52 0 001.52-1.52v-7.174a6.665 6.665 0 00-6.658-6.654H16.302z" fill="#373737"/><path d="M50.745 48.886h-4.329a1.794 1.794 0 01-1.791-1.792v-2.868a.8.8 0 01.8-.8h6.311a.8.8 0 01.8.8v2.868a1.793 1.793 0 01-1.791 1.792zm-4.52-3.86v2.068a.192.192 0 00.191.192h4.329a.192.192 0 00.191-.192v-2.068h-4.711zm-28.615 3.86h-4.33a1.793 1.793 0 01-1.792-1.792v-2.868a.8.8 0 01.8-.8H18.6a.8.8 0 01.8.8v2.868a1.793 1.793 0 01-1.79 1.792zm-4.52-3.86v2.068a.191.191 0 00.19.192h4.33a.19.19 0 00.19-.192v-2.068h-4.71zm37.821-16.235a.8.8 0 01-.735-.48l-4.19-9.671a4.308 4.308 0 00-3.6-1.929H21.642a4.312 4.312 0 00-3.6 1.929l-4.193 9.668a.8.8 0 11-1.468-.636l4.216-9.728a.909.909 0 01.062-.117 5.909 5.909 0 014.983-2.713h20.741a5.906 5.906 0 014.982 2.714.762.762 0 01.062.116l4.218 9.73a.802.802 0 01-.734 1.12v-.003z" fill="#373737"/><path d="M52.417 27.889h-2.09a.8.8 0 010-1.6h2.09a.8.8 0 110 1.6z" fill="#373737"/><path d="M57.336 27.888h-4.919a.8.8 0 01-.8-.8v-3.536a.8.8 0 01.8-.8h3.903a2.168 2.168 0 012.166 2.166v1.821a1.15 1.15 0 01-1.15 1.149zm-4.119-1.6h3.668v-1.37a.567.567 0 00-.566-.566h-3.102v1.936zm-39.544 1.601h-2.09a.8.8 0 110-1.6h2.09a.8.8 0 110 1.6z" fill="#373737"/><path d="M11.582 27.888H6.663a1.15 1.15 0 01-1.15-1.149v-1.82a2.169 2.169 0 012.166-2.167h3.902a.8.8 0 01.8.8v3.536a.8.8 0 01-.8.8zm-4.468-1.6h3.668v-1.936H7.679a.567.567 0 00-.566.566v1.37z" fill="#373737"/></svg>