<svg width="64" height="64" fill="none" xmlns="http://www.w3.org/2000/svg"><path fill-rule="evenodd" clip-rule="evenodd" d="M28.74 49.985c-.246.01-.492.015-.74.015-9.941 0-18-8.059-18-18s8.059-18 18-18c9.189 0 16.77 6.885 17.864 15.778h2.014C46.772 19.778 38.294 12 28 12 16.954 12 8 20.954 8 32s8.954 20 20 20c.247 0 .494-.005.74-.013v-2.002z" fill="#373737"/><path d="M28 13.74v3.704M9.48 32h3.704" stroke="#373737" stroke-width="2" stroke-linecap="round"/><path d="M38.075 50.415L40.55 45h1.553v7H40.86v-5.092L38.505 52h-.86l-2.401-5.202V52H34v-7h1.614l2.461 5.415zM48.814 45h1.244v7h-1.244v-5.104L45.46 52h-1.244v-7h1.244v5.11L48.814 45zM58 52h-1.244v-2.989h-3.342V52h-1.25v-7h1.25v3.034h3.342V45H58v7zM25.809 32.012h1.357c.853-.013 1.523-.238 2.012-.674.488-.436.732-1.026.732-1.768 0-1.666-.83-2.5-2.49-2.5-.781 0-1.406.225-1.875.674-.462.443-.693 1.032-.693 1.768h-1.807c0-1.127.41-2.06 1.23-2.803.827-.749 1.875-1.123 3.145-1.123 1.341 0 2.392.355 3.154 1.064.762.71 1.143 1.696 1.143 2.96 0 .618-.202 1.217-.606 1.796-.397.58-.94 1.013-1.63 1.3.78.246 1.383.657 1.806 1.23.43.572.645 1.272.645 2.1 0 1.275-.417 2.288-1.25 3.036-.834.749-1.918 1.123-3.252 1.123-1.335 0-2.422-.361-3.262-1.084-.833-.722-1.25-1.676-1.25-2.861h1.816c0 .749.244 1.348.733 1.797.488.45 1.142.674 1.963.674.872 0 1.54-.228 2.002-.684.462-.456.693-1.11.693-1.963 0-.827-.254-1.461-.762-1.904-.508-.443-1.24-.67-2.197-.684h-1.357v-1.474z" fill="#373737"/></svg>