<svg width="64" height="64" fill="none" xmlns="http://www.w3.org/2000/svg"><path fill-rule="evenodd" clip-rule="evenodd" d="M28.74 49.985c-.246.01-.492.015-.74.015-9.941 0-18-8.059-18-18s8.059-18 18-18c9.189 0 16.77 6.885 17.864 15.778h2.014C46.772 19.778 38.294 12 28 12 16.954 12 8 20.954 8 32s8.954 20 20 20c.247 0 .494-.005.74-.013v-2.002z" fill="#373737"/><path d="M28 13.74v3.704M9.48 32h3.704" stroke="#373737" stroke-width="2" stroke-linecap="round"/><path d="M38.075 50.415L40.55 45h1.553v7H40.86v-5.092L38.505 52h-.86l-2.401-5.202V52H34v-7h1.614l2.461 5.415zM48.814 45h1.244v7h-1.244v-5.104L45.46 52h-1.244v-7h1.244v5.11L48.814 45zM58 52h-1.244v-2.989h-3.342V52h-1.25v-7h1.25v3.034h3.342V45H58v7zM31.692 28.476c0 .667-.127 1.354-.381 2.061a12.552 12.552 0 01-.998 2.081c-.4.694-.853 1.381-1.36 2.062-.497.68-.998 1.335-1.506 1.964l-.98.844v.079l1.306-.216H32V39h-8v-.707c.29-.3.635-.667 1.034-1.1.411-.444.835-.929 1.27-1.453.447-.536.883-1.099 1.306-1.688.435-.59.822-1.185 1.161-1.787.339-.615.61-1.217.816-1.806.218-.59.327-1.146.327-1.67 0-.615-.176-1.125-.526-1.53-.351-.407-.89-.61-1.615-.61-.508 0-.997.105-1.47.314-.47.21-.876.465-1.215.766l-.743-1.315a5.787 5.787 0 011.687-1.021A5.377 5.377 0 0128.118 25c1.125 0 2.001.32 2.63.962.63.628.944 1.466.944 2.514z" fill="#373737"/></svg>