<svg width="64" height="64" fill="none" xmlns="http://www.w3.org/2000/svg"><path d="M30.995 40.997a.634.634 0 00-.886.136l-.078.106a.634.634 0 001.02.752l.08-.108a.634.634 0 00-.136-.886z" fill="#373737"/><path d="M31.16 47.027l-1.63-2.964 1.522-2.073a.634.634 0 10-1.021-.75l-1.762 2.399a.634.634 0 00-.044.68l1.825 3.318a.634.634 0 001.11-.61zm4.725-3.388l-1.755-2.39a.633.633 0 10-1.02.751l1.514 2.063-1.619 2.944a.635.635 0 00.556.94.634.634 0 00.555-.33l1.814-3.297a.634.634 0 00-.044-.681zm1.003-9.96a.634.634 0 00-.654.04 9.989 9.989 0 00-1.04.817c-1.706 1.542-3.326 1.333-3.39 1.324a.613.613 0 00-.115-.008c-.674.018-1.89-.598-3.175-1.608a10.367 10.367 0 00-.6-.437.633.633 0 00-.988.525v2.174a.634.634 0 00.292.534l4.494 3.003.003.001.011.008a.635.635 0 00.721-.014l4.484-2.995a.634.634 0 00.296-.537V34.24a.634.634 0 00-.339-.561zm-.929 2.488l-3.883 2.595-3.883-2.595v-.577c.946.688 2.337 1.53 3.47 1.53h.008c.38.042 2.322.157 4.288-1.569v.616z" fill="#373737"/><path d="M32.702 39.42a.634.634 0 00-1.136-.271l-1.457 1.984a.634.634 0 101.022.75l1.45-1.974a.633.633 0 00.121-.49zm9.031-20.432c-.012-.1-.31-2.242-2.326-3.087.059-.377.052-.86-.186-1.33-.322-.633-.955-1.045-1.884-1.226a.636.636 0 00-.12-.012H28.71a6.271 6.271 0 00-6.265 6.265v3.338c0 .87.297 1.717.835 2.387.267.333.595.913.645 1.79a.633.633 0 001.266-.036v-4.352c.43-1.78 1.9-2.126 2.152-2.173h2.752c.323 0 .642-.049.946-.146a47.242 47.242 0 001.957-.707 1.844 1.844 0 011.26-.016l2.946 1.035a2.694 2.694 0 011.768 2.039v5.223a.633.633 0 001.26.093c.003-.016.256-1.65 1.072-2.96a2.84 2.84 0 00.434-1.502v-4.543a.63.63 0 00-.005-.08zm-1.262 4.623c0 .283-.08.564-.231.814v-1.712a.624.624 0 00-.004-.068 3.95 3.95 0 00-2.599-3.119l-.009-.003-2.95-1.036a3.104 3.104 0 00-2.13.028c-.846.32-1.501.557-1.895.683a1.83 1.83 0 01-.559.087h-2.802a.634.634 0 00-.082.005 4.035 4.035 0 00-3.271 3.225.634.634 0 00-.015.138v1.304a2.576 2.576 0 01-.211-1.021v-3.338a5.003 5.003 0 014.996-4.997h8.443c.35.074.774.227.936.538.197.38-.028.905-.028.905a.634.634 0 00.425.886c1.614.388 1.943 1.936 1.986 2.186v4.495z" fill="#373737"/><path d="M40.234 22.645a3.95 3.95 0 00-2.599-3.119c-.003 0-.006-.002-.008-.003l-2.95-1.036a3.108 3.108 0 00-2.13.027c-.847.322-1.502.558-1.895.684a1.827 1.827 0 01-.56.087H27.29a.652.652 0 00-.082.005 4.035 4.035 0 00-3.27 3.225.634.634 0 00-.016.138v5.462c.004.19.138 4.659 3.226 6.703l.016.011.04.028c.177.12.354.248.526.384.9.706 2.596 1.88 3.933 1.88h.007c.073.007.203.018.378.018.758 0 2.376-.199 3.995-1.663a8.85 8.85 0 01.91-.714l.047-.033.047-.033c1.03-.692 2.814-2.477 3.188-6.66a.629.629 0 00.003-.056v-5.267a.682.682 0 00-.004-.068zm-1.264 5.306c-.345 3.775-1.954 5.238-2.63 5.693a4.33 4.33 0 00-.072.05l-.035.024c-.377.26-.727.535-1.04.818-1.699 1.536-3.314 1.334-3.393 1.323a.63.63 0 00-.112-.006c-.674.017-1.89-.6-3.175-1.609a10.321 10.321 0 00-.6-.437l-.015-.011a1.61 1.61 0 00-.048-.034c-2.492-1.65-2.655-5.509-2.66-5.67v-5.367c.431-1.786 1.91-2.128 2.15-2.173h2.753c.323 0 .642-.049.946-.146a47.398 47.398 0 001.957-.707 1.844 1.844 0 011.26-.016l2.946 1.035a2.694 2.694 0 011.768 2.039v5.194zM32.645 39.24a.634.634 0 00-1.078-.09l-1.518 2.067a.634.634 0 001.02.751l1.519-2.06a.655.655 0 00.057-.667zm.039 10.205a.634.634 0 00-.886-.03l-.145.133a.634.634 0 00-.125.777l.004.008a.633.633 0 001.002.139l.14-.14a.633.633 0 00.01-.887z" fill="#373737"/><path d="M32.5 49.548l-.145-.132a.634.634 0 00-.876.916l.14.14a.634.634 0 001.004-.143l.004-.008a.634.634 0 00-.128-.773z" fill="#373737"/><path d="M32.51 49.558h-.001a.633.633 0 00-.865-.002l-.002.002a.633.633 0 00-.02.918l.007.006a.632.632 0 00.895 0l.007-.008a.633.633 0 00-.021-.916zm-.228-10.648a.633.633 0 10.173 1.122.634.634 0 00.27-.518v-.001a.633.633 0 00-.443-.602z" fill="#373737"/><path d="M32.592 39.144l-.005-.008a.634.634 0 00-1.144.377v.01a.633.633 0 00.635.632.634.634 0 00.514-1.011z" fill="#373737"/><path d="M39.617 37.153a.633.633 0 00-.38-.372l-2.43-.871a.633.633 0 00-.566.07l-4.502 3.008-.004.002.354.526-.362-.52a.634.634 0 00-.16.904l3.296 4.49a.634.634 0 001.066-.07l3.65-6.637a.633.633 0 00.038-.53zm-4.32 5.686l-2.317-3.156 3.7-2.473 1.43.513-2.813 5.116z" fill="#373737"/><path d="M32.701 39.415a.634.634 0 00-.271-.417l-4.518-3.019a.634.634 0 00-.566-.07l-2.43.872a.634.634 0 00-.341.902l3.65 6.636a.634.634 0 001.066.07l1.761-2.399.005-.006 1.53-2.085a.633.633 0 00.114-.484zm-2.67 1.825l-.005.006-1.17 1.593-2.813-5.116 1.43-.513 3.7 2.473-1.142 1.557zm20.756 6.732l-.817-4.937a4.37 4.37 0 00-2.822-3.392l-7.91-2.862a.634.634 0 00-.782.88l1.65 3.31-1.62.026a.634.634 0 00-.551.928l.664 1.269-6.801 6.222a.621.621 0 00-.02.02l-.141.14a.634.634 0 00-.108.752l.005.009c.111.203.324.33.556.33h16.412a2.313 2.313 0 002.285-2.695zm-1.485 1.057c-.2.235-.49.37-.8.37H33.695l6.121-5.6a.633.633 0 00.134-.761l-.413-.79 1.597-.024a.634.634 0 00.558-.917l-1.394-2.795 6.42 2.323a3.101 3.101 0 012.003 2.407l.817 4.937c.05.305-.035.614-.235.85z" fill="#373737"/><path d="M32.516 49.563l-.007-.007a.634.634 0 00-.875.024l-.006.006a.634.634 0 00.45 1.08h.013a.634.634 0 00.425-1.103z" fill="#373737"/><path d="M32.496 49.545a.633.633 0 00-.98.166l-.004.008a.634.634 0 00.1.746l.002.002a.632.632 0 00.883.027l.006-.006a.633.633 0 00-.007-.943z" fill="#373737"/><path d="M32.524 49.584l-.003-.003-.005-.005-.14-.14a.524.524 0 00-.02-.02l-6.803-6.222.665-1.27a.634.634 0 00-.552-.927l-1.62-.025 1.651-3.312a.634.634 0 00-.783-.879l-7.91 2.862a4.37 4.37 0 00-2.821 3.392l-.818 4.937a2.313 2.313 0 002.285 2.694h16.427a.634.634 0 00.447-1.082zm-16.874-.185a1.047 1.047 0 01-1.034-1.22l.818-4.937a3.101 3.101 0 012.002-2.407l6.42-2.323-1.394 2.795a.634.634 0 00.558.917l1.598.024-.414.79a.634.634 0 00.134.761l6.121 5.6H15.65z" fill="#373737"/><path d="M34.234 41.778a.634.634 0 00-.104-.529l-1.542-2.1a.632.632 0 00-1.041.035l-1.515 2.054a.634.634 0 00-.01.739l.645.926-.687 4.33a.634.634 0 00.07.404l1.472 2.676a.634.634 0 001.11 0l1.483-2.695a.649.649 0 00.07-.405l-.683-4.31.638-.916a.64.64 0 00.094-.209zm-2.157 6.914l-.811-1.475.693-4.367a.633.633 0 00-.106-.462l-.532-.762.758-1.028.761 1.037-.524.753a.634.634 0 00-.106.462l.69 4.347-.823 1.495z" fill="#373737"/></svg>