<svg width="30" height="30" fill="none" xmlns="http://www.w3.org/2000/svg"><path d="M21.285 0H8.715C3.909 0 0 3.91 0 8.715v12.57C0 26.091 3.91 30 8.715 30h12.57C26.091 30 30 26.09 30 21.285V8.715C30 3.909 26.09 0 21.285 0zm6.371 21.285a6.378 6.378 0 01-6.37 6.371H8.714a6.378 6.378 0 01-6.371-6.37V8.714a6.378 6.378 0 016.37-6.371h12.571a6.378 6.378 0 016.371 6.37v12.571z" fill="#000"/><path d="M15 6.914c-4.459 0-8.086 3.627-8.086 8.086 0 4.459 3.627 8.086 8.086 8.086 4.459 0 8.086-3.627 8.086-8.086 0-4.459-3.627-8.086-8.086-8.086zm0 13.828A5.749 5.749 0 019.258 15 5.749 5.749 0 0115 9.258 5.749 5.749 0 0120.742 15 5.749 5.749 0 0115 20.742zm8.203-12.773a1.172 1.172 0 100-2.344 1.172 1.172 0 000 2.344z" fill="#000"/></svg>