<svg width="24" height="24" fill="none" xmlns="http://www.w3.org/2000/svg"><path d="M23.18 6.495L17.065.14a.462.462 0 00-.332-.14H7.62C6.6 0 5.77.83 5.77 1.849v6.459H2.077c-.763 0-1.384.62-1.384 1.383v6.926c0 .762.621 1.383 1.384 1.383H5.77v4.154A1.85 1.85 0 007.62 24h13.84a1.85 1.85 0 001.849-1.845V6.815a.462.462 0 00-.13-.32zm-6.333-5.249l5.02 5.216h-5.02V1.246zm-14.77 15.83a.46.46 0 01-.46-.46V9.692a.46.46 0 01.46-.46H14.54a.46.46 0 01.461.46v6.926c0 .253-.207.46-.46.46H2.076zm20.309 5.08a.925.925 0 01-.927.92H7.62a.926.926 0 01-.926-.922V18h7.847c.763 0 1.384-.62 1.384-1.383V9.69c0-.763-.62-1.383-1.384-1.383H6.693v-6.46c0-.51.416-.925.927-.925h8.304v6c0 .255.207.462.462.462h6v14.77z" fill="#373737"/><path d="M6.21 11.714a1.04 1.04 0 00-.571-.388c-.148-.04-.465-.06-.952-.06H3.402v3.965h.8v-1.496h.523c.362 0 .639-.019.83-.057.14-.03.279-.093.415-.188.136-.094.248-.225.337-.39.088-.166.132-.37.132-.614 0-.316-.076-.573-.23-.772zm-.686 1.09a.525.525 0 01-.25.196c-.107.041-.318.062-.633.062h-.438v-1.125h.387c.288 0 .48.009.576.027.13.023.237.082.321.176a.512.512 0 01.127.357c0 .117-.03.22-.09.308zm4.764-.454a1.734 1.734 0 00-.379-.643 1.326 1.326 0 00-.598-.365c-.173-.05-.424-.076-.754-.076H7.094v3.965H8.6c.296 0 .532-.028.709-.084.236-.076.423-.181.562-.317.184-.178.325-.412.425-.7a2.64 2.64 0 00.121-.844c0-.371-.043-.684-.13-.937zm-.78 1.627c-.053.178-.123.305-.209.383a.738.738 0 01-.323.165c-.1.025-.26.038-.484.038h-.598v-2.626h.36c.326 0 .545.012.657.038.15.032.273.094.37.186.098.092.174.22.228.384.054.164.08.4.08.706 0 .306-.026.549-.08.726zm4.312-2.04v-.67h-2.718v3.964h.8v-1.685h1.655v-.67h-1.655v-.94h1.917z" fill="#373737"/></svg>