<svg width="60" height="60" fill="none" xmlns="http://www.w3.org/2000/svg"><path d="M41.338 28.648H18.844a.75.75 0 000 1.5h22.494a.75.75 0 100-1.5zm-6.09-5.998h-16.6c-.306 0-.554.335-.554.75 0 .413.247.75.553.75h16.6c.306 0 .554-.337.554-.75 0-.415-.248-.75-.553-.75zm6.086 11.997h-22.49a.75.75 0 000 1.5h22.49a.75.75 0 000-1.5zm-.55 5.943H18.793c-.552 0-1 .335-1 .75 0 .414.448.75 1 .75h21.99c.553 0 1-.336 1-.75 0-.415-.447-.75-1-.75z" fill="#373737"/><path d="M47.854 15.328c-.06-.087-9.086-9.114-9.175-9.177-.294-.21 1.05-.14-22.93-.14A3.753 3.753 0 0012 9.761v40.49A3.753 3.753 0 0015.75 54h28.492a3.753 3.753 0 003.75-3.75c0-36.889.074-34.621-.138-34.922zm-2.422-.319h-6.438V8.571l6.438 6.438zM44.242 52.5H15.75a2.252 2.252 0 01-2.25-2.25V9.76c0-1.24 1.01-2.25 2.25-2.25h21.745v8.249c0 .414.336.75.75.75h8.248V50.25c0 1.24-1.01 2.25-2.25 2.25z" fill="#373737"/></svg>