<svg width="60" height="62" fill="none" xmlns="http://www.w3.org/2000/svg"><g filter="url(#filter0_d)" fill="#373737"><path d="M30 54c13.234 0 24-10.766 24-24S43.234 6 30 6 6 16.766 6 30s10.766 24 24 24zm0-45.86c12.054 0 21.86 9.806 21.86 21.86S42.054 51.86 30 51.86 8.14 42.054 8.14 30 17.946 8.14 30 8.14z"/><path d="M24.086 27.843a4.431 4.431 0 100-8.863 4.431 4.431 0 000 8.863zm0-6.723a2.291 2.291 0 110 4.583 2.291 2.291 0 010-4.583zm7.129 15.738a4.431 4.431 0 108.863 0 4.431 4.431 0 00-8.863 0zm6.723 0a2.291 2.291 0 11-4.583-.001 2.291 2.291 0 014.583 0zm-16.085 5.635a1.07 1.07 0 001.48-.312L38.46 18.988a1.072 1.072 0 00-.837-1.656 1.07 1.07 0 00-.955.486L21.54 41.013a1.07 1.07 0 00.312 1.481z"/></g><defs><filter id="filter0_d" x="-4" y="0" width="68" height="68" filterUnits="userSpaceOnUse" color-interpolation-filters="sRGB"><feFlood flood-opacity="0" result="BackgroundImageFix"/><feColorMatrix in="SourceAlpha" values="0 0 0 0 0 0 0 0 0 0 0 0 0 0 0 0 0 0 127 0" result="hardAlpha"/><feOffset dy="4"/><feGaussianBlur stdDeviation="2"/><feComposite in2="hardAlpha" operator="out"/><feColorMatrix values="0 0 0 0 0 0 0 0 0 0 0 0 0 0 0 0 0 0 0.25 0"/><feBlend in2="BackgroundImageFix" result="effect1_dropShadow"/><feBlend in="SourceGraphic" in2="effect1_dropShadow" result="shape"/></filter></defs></svg>